<svg width="40" height="40" viewBox="0 0 40 40" fill="none" xmlns="http://www.w3.org/2000/svg">
  <defs>
    <linearGradient id="gatewayGradient" x1="0%" y1="0%" x2="100%" y2="100%">
      <stop offset="0%" stop-color="#8950FA"/>
      <stop offset="100%" stop-color="#6B3DD4"/>
    </linearGradient>
  </defs>
  <rect width="40" height="40" rx="8" fill="url(#gatewayGradient)"/>
  <path d="M20 8C13.373 8 8 13.373 8 20C8 26.627 13.373 32 20 32C23.313 32 26.313 30.687 28.5 28.5V20H20V24H24.5V26.5C23.187 27.437 21.687 28 20 28C15.582 28 12 24.418 12 20C12 15.582 15.582 12 20 12C22.25 12 24.313 12.875 25.813 14.313L28.687 11.437C26.437 9.25 23.375 8 20 8Z" fill="white"/>
</svg>
